<?xml version="1.0" encoding="UTF-8" standalone="no"?>
<!-- Created with Inkscape (http://www.inkscape.org/) -->

<svg
   width="1024mm"
   height="1024mm"
   viewBox="0 0 1024 1024"
   version="1.1"
   id="svg5"
   xmlns="http://www.w3.org/2000/svg"
   xmlns:svg="http://www.w3.org/2000/svg">
  <defs
     id="defs2" />
  <g
     id="layer1">
    <path
       id="path1879"
       style="fill:#e1e1ed;fill-opacity:1;stroke:none;stroke-width:0.917301;stroke-linecap:round;stroke-linejoin:round"
       d="m 628.68846,21.346432 -239.3282,5.320416 11.19251,201.130182 74.62239,-4.08836 12.43519,113.36145 -89.55301,9.2387 6.22291,97.17807 -101.2765,8.88843 -4.43919,-106.95837 -113.89244,8.34683 L 188.7605,239.17027 293.05335,228.6889 287.90301,27.027743 51.590595,24.542941 41.109219,233.65906 155.18238,241.8358 143.97867,363.18319 24.935907,387.34245 42.001084,614.23546 167.25613,598.60375 l -3.90765,282.13439 43.70924,-7.98538 -8.52755,-279.8415 113.18129,7.99658 -2.66553,-120.81643 96.65716,-4.9696 7.81587,106.41622 94.52261,-4.61936 -7.99601,115.6661 -157.59105,5.16095 12.60474,211.06995 281.62523,-3.01578 1.95437,-220.49999 -96.12674,7.64575 4.26909,-115.13455 92.03782,-1.42341 -0.54161,-119.924 118.6925,7.28488 6.39301,120.10472 93.99165,-1.95382 7.99657,105.53497 23.62771,302.04581 18.48858,-297.95744 0.88124,-110.33505 93.64143,-4.80007 3.5467,-257.26398 -247.3242,7.10415 5.69193,100.56537 -128.11193,-0.18073 4.08838,-100.38464 -129.70486,7.63512 -2.13455,-107.83905 123.31241,-8.52755 z M 887.65784,365.75976 a 88.878785,88.878785 0 0 1 88.87885,88.87881 88.878785,88.878785 0 0 1 -88.87885,88.87879 88.878785,88.878785 0 0 1 -88.8788,-88.87879 88.878785,88.878785 0 0 1 88.8788,-88.87881 z m -366.49286,7.17521 a 86.286255,86.286255 0 0 1 86.28656,86.28602 86.286255,86.286255 0 0 1 -86.28656,86.28657 86.286255,86.286255 0 0 1 -86.28602,-86.28657 86.286255,86.286255 0 0 1 86.28602,-86.28602 z m -352.89277,23.97014 a 87.709019,87.709019 0 0 1 87.70886,87.70886 87.709019,87.709019 0 0 1 -87.70886,87.70941 87.709019,87.709019 0 0 1 -87.70941,-87.70941 87.709019,87.709019 0 0 1 87.70941,-87.70886 z" />
  </g>
</svg>
